{"asset":{"version":"2.0","generator":"VECTARY"},"nodes":[{"translation":[0,0,0],"scale":[0.001,0.001,0.001],"rotation":[-0.7071067811865475,0,0,0.7071067811865476],"name":"Merged Objects","mesh":0}],"materials":[{"pbrMetallicRoughness":{"baseColorFactor":[0.7011695015314021,0.14497212559723088,0.20471011883667684,1],"metallicFactor":0,"roughnessFactor":0.2},"name":"Spicy Mix","emissiveFactor":[0,0,0],"extensions":{},"alphaMode":"OPAQUE","doubleSided":false}],"meshes":[{"primitives":[{"mode":4,"attributes":{"POSITION":1,"NORMAL":2,"TEXCOORD_0":3},"material":0,"indices":0}]}],"accessors":[{"bufferView":0,"byteOffset":0,"componentType":5125,"count":11904,"type":"SCALAR"},{"bufferView":1,"byteOffset":0,"componentType":5126,"count":2199,"max":[112.73404693603516,112.73404693603516,494.20819091796875],"min":[-112.73404693603516,-112.73404693603516,0],"type":"VEC3"},{"bufferView":2,"byteOffset":0,"componentType":5126,"count":2199,"type":"VEC3"},{"bufferView":3,"byteOffset":0,"componentType":5126,"count":2199,"type":"VEC2"}],"bufferViews":[{"buffer":0,"byteOffset":0,"byteLength":47616,"target":34963},{"buffer":0,"byteOffset":47616,"byteLength":26388,"target":34962},{"buffer":0,"byteOffset":74004,"byteLength":26388,"target":34962},{"buffer":0,"byteOffset":100392,"byteLength":17592,"target":34962}],"scene":0,"scenes":[{"nodes":[0],"name":"Red Arrow"}],"extensionsUsed":["KHR_texture_transform"],"buffers":[{"byteLength":117984,"uri":"RedArrow.bin"}]}